<svg width="33" height="36" viewBox="0 0 33 36" fill="none" xmlns="http://www.w3.org/2000/svg">
<path d="M33 28.8C33 32.7764 25.6127 36 16.5 36C7.3873 36 0 32.7764 0 28.8V21.5532C1.03581 22.6631 2.50583 23.5852 4.14096 24.2986C7.38383 25.7137 11.7556 26.55 16.5 26.55C21.2444 26.55 25.6163 25.7137 28.8591 24.2986C30.4943 23.5852 31.9642 22.6631 33 21.5532V28.8Z" fill="#1C274C"/>
<path d="M16.5 15.75C21.2444 15.75 25.6163 14.9137 28.8591 13.4987C30.4943 12.7852 31.9642 11.8631 33 10.7532V18C33 18.9 29.317 20.864 27.4754 21.8837C24.7465 23.0746 20.8684 23.85 16.5 23.85C12.1317 23.85 8.25346 23.0746 5.52453 21.8837C3.09375 20.823 0 18.9 0 18V10.7532C1.03581 11.8631 2.50583 12.7852 4.14096 13.4987C7.38383 14.9137 11.7556 15.75 16.5 15.75Z" fill="#1C274C"/>
<path d="M27.4753 11.0837C24.7464 12.2745 20.8683 13.05 16.4999 13.05C12.1317 13.05 8.25341 12.2745 5.52448 11.0837C4.46287 10.7207 2.07558 9.56685 0.41554 7.70283C0.13306 7.38563 0.0118264 6.98135 0.0821989 6.58436C0.129533 6.31744 0.195472 6.04251 0.279993 5.87207C1.70801 2.52997 8.42691 0 16.4999 0C24.573 0 31.2918 2.52997 32.7199 5.87207C32.8044 6.04251 32.8704 6.31744 32.9177 6.58436C32.988 6.98135 32.8669 7.38563 32.5844 7.70283C30.9242 9.56685 28.5371 10.7207 27.4753 11.0837Z" fill="#1C274C"/>
</svg>
