<svg width="41" height="45" viewBox="0 0 41 45" fill="none" xmlns="http://www.w3.org/2000/svg">
<g filter="url(#filter0_d_0_61)">
<path fill-rule="evenodd" clip-rule="evenodd" d="M4.03283 3C3.99602 3.00596 3.99873 3.0553 4.00138 3.10471C4.00138 15.2903 4.00138 27.4739 4.00138 39.6592C14.9388 39.7407 26.0105 39.6708 37 39.6941C37 27.4625 37 15.2315 37 3C26.0113 3 15.0216 3 4.03283 3ZM20.7514 35.4387C19.988 36.2947 18.7832 36.7988 17.301 36.7988C14.8701 36.7988 13.5204 35.4816 12.6588 33.6595C13.4881 33.0706 14.3357 32.5016 15.1996 31.9505C15.552 33.0467 16.7421 34.2789 18.0852 33.5203C18.9366 33.0392 18.8383 31.5805 18.8383 29.9973C18.8383 26.7098 18.8383 22.9174 18.8383 19.9517C18.8355 19.9023 18.8329 19.8529 18.8694 19.8469C19.8837 19.8469 20.898 19.8469 21.9121 19.8469C21.9121 22.4891 21.9121 25.4778 21.9121 28.2879C21.9121 31.3473 22.1087 33.9176 20.7514 35.4387ZM34.3649 32.4043C34.1922 35.2688 32.0889 36.7898 29.2522 36.7988C26.4713 36.8077 24.6913 35.4333 23.6058 33.3107C24.3863 32.7134 25.2705 32.2322 26.084 31.6717C26.735 32.8036 27.8624 33.8916 29.5344 33.7295C30.5762 33.6285 31.7854 32.6841 31.1028 31.253C30.7717 30.5592 29.9716 30.2068 29.2522 29.8579C26.9692 28.7501 24.2907 27.7341 24.5469 23.7537C24.6326 22.4241 25.1831 21.4896 25.8959 20.8238C26.6263 20.1415 27.6046 19.6842 28.9071 19.638C31.2726 19.5537 32.5703 20.7239 33.4554 22.3588C32.7021 22.9973 31.8723 23.5516 31.04 24.1026C30.7669 23.1693 29.4486 22.2599 28.3424 22.8121C27.8394 23.063 27.3874 23.8004 27.6525 24.6955C27.8888 25.4938 28.8529 25.9307 29.6285 26.3003C31.9761 27.4178 34.5997 28.5099 34.3649 32.4043Z" fill="url(#paint0_linear_0_61)"/>
</g>
<defs>
<filter id="filter0_d_0_61" x="0" y="0" width="41" height="44.7" filterUnits="userSpaceOnUse" color-interpolation-filters="sRGB">
<feFlood flood-opacity="0" result="BackgroundImageFix"/>
<feColorMatrix in="SourceAlpha" type="matrix" values="0 0 0 0 0 0 0 0 0 0 0 0 0 0 0 0 0 0 127 0" result="hardAlpha"/>
<feOffset dy="1"/>
<feGaussianBlur stdDeviation="2"/>
<feComposite in2="hardAlpha" operator="out"/>
<feColorMatrix type="matrix" values="0 0 0 0 0 0 0 0 0 0 0 0 0 0 0 0 0 0 0.1 0"/>
<feBlend mode="normal" in2="BackgroundImageFix" result="effect1_dropShadow_0_61"/>
<feBlend mode="normal" in="SourceGraphic" in2="effect1_dropShadow_0_61" result="shape"/>
</filter>
<linearGradient id="paint0_linear_0_61" x1="20.5" y1="3" x2="20.5" y2="39.7" gradientUnits="userSpaceOnUse">
<stop stop-color="#E1D031"/>
<stop offset="1" stop-color="#AE9D00"/>
</linearGradient>
</defs>
</svg>
