<?xml version="1.0" encoding="utf-8"?>
<!-- Generator: Adobe Illustrator 27.5.0, SVG Export Plug-In . SVG Version: 6.00 Build 0)  -->
<svg version="1.1" xmlns="http://www.w3.org/2000/svg" xmlns:xlink="http://www.w3.org/1999/xlink" x="0px" y="0px"
	 viewBox="0 0 600 600" style="enable-background:new 0 0 600 600;" xml:space="preserve">
<g id="background">
	<rect style="fill:#FFFFFF;" width="600" height="600"/>
</g>
<g id="objects">
	<g>
		<rect x="61.5" y="398.891" width="477" height="22.69"/>
		<path style="fill:#1C1C1C;" d="M531.5,108.891h-463c-3.866,0-7,3.134-7,7v283c0,3.866,3.134,7,7,7h463c3.866,0,7-3.134,7-7v-283
			C538.5,112.025,535.366,108.891,531.5,108.891z"/>
		<circle style="fill:#2D2D2D;" cx="300" cy="119.862" r="4"/>
		<circle style="fill:#FFFFFF;" cx="316.885" cy="119.862" r="1.688"/>
		<circle style="fill:#354254;" cx="300" cy="119.862" r="1.688"/>
		<circle style="fill:#2D2D2D;" cx="333.029" cy="119.862" r="1.477"/>
		<rect x="71" y="129.891" style="fill:#2DBCE8;" width="458" height="259"/>
		<path style="fill:#1C1C1C;" d="M581,468.542H19c-1.53,0-2.36-1.78-1.38-2.96l42.14-50.22c0.73-0.88,1.82-1.39,2.96-1.41h474.56
			c1.14,0.02,2.23,0.53,2.96,1.41l42.14,50.22C583.36,466.762,582.53,468.542,581,468.542z"/>
		<path style="fill:#2D2D2D;" d="M582.8,466.677l0.004,11.041c0,1.061-0.86,1.921-1.921,1.921H19.117
			c-1.061,0-1.921-0.86-1.921-1.921l0.004-11.041H582.8z"/>
		<path style="fill:#1C1C1C;" d="M581.842,479.383c0,0-11.57,11.726-29.07,11.726H47.261c-17.5,0-29.02-11.69-29.02-11.69
			L581.842,479.383z"/>
		<polygon style="fill:#2D2D2D;" points="141.186,461.79 149.825,446.283 320.172,446.283 321.43,461.79 		"/>
		<path style="fill:#2D2D2D;" d="M417.619,441.292h-29.927c-0.235,0-0.438-0.163-0.488-0.392l-0.619-2.8
			c-0.069-0.312,0.169-0.608,0.488-0.608h29.581c0.213,0,0.403,0.135,0.473,0.337l0.965,2.8
			C418.203,440.953,417.962,441.292,417.619,441.292z"/>
		<path style="fill:#2D2D2D;" d="M168.013,438.174l-1.099,2.81c-0.075,0.192-0.26,0.318-0.466,0.318H143.79
			c-0.365,0-0.607-0.377-0.454-0.709l1.291-2.81c0.082-0.178,0.259-0.291,0.454-0.291h22.467
			C167.9,437.492,168.141,437.846,168.013,438.174z"/>
		<path style="fill:#2D2D2D;" d="M226.473,433.411h22.618c0.309,0,0.543,0.277,0.493,0.581l-0.355,2.16
			c-0.04,0.242-0.249,0.419-0.493,0.419h-22.735c-0.319,0-0.557-0.295-0.488-0.607l0.472-2.16
			C226.034,433.575,226.238,433.411,226.473,433.411z"/>
		<path style="fill:#2D2D2D;" d="M253.154,433.411h22.433c0.285,0,0.512,0.238,0.5,0.522l-0.096,2.16
			c-0.012,0.267-0.232,0.478-0.5,0.478h-22.693c-0.309,0-0.543-0.277-0.493-0.581l0.355-2.16
			C252.701,433.589,252.91,433.411,253.154,433.411z"/>
		<path style="fill:#2D2D2D;" d="M302.707,433.915l-0.014,2.16c-0.002,0.275-0.225,0.497-0.5,0.497h-22.691
			c-0.285,0-0.512-0.238-0.5-0.522l0.096-2.16c0.012-0.267,0.232-0.478,0.5-0.478h22.609
			C302.484,433.411,302.709,433.637,302.707,433.915z"/>
		<path style="fill:#2D2D2D;" d="M329.295,433.874l0.164,2.16c0.022,0.29-0.207,0.538-0.499,0.538h-22.767
			c-0.277,0-0.502-0.226-0.5-0.503l0.014-2.16c0.002-0.275,0.225-0.497,0.5-0.497h22.59
			C329.058,433.411,329.275,433.613,329.295,433.874z"/>
		<path style="fill:#2D2D2D;" d="M355.871,433.827l0.369,2.16c0.052,0.305-0.183,0.584-0.493,0.584h-22.784
			c-0.261,0-0.479-0.201-0.499-0.462l-0.164-2.16c-0.022-0.29,0.207-0.538,0.499-0.538h22.579
			C355.622,433.411,355.83,433.587,355.871,433.827z"/>
		<path style="fill:#2D2D2D;" d="M382.424,436.572h-22.62c-0.244,0-0.453-0.176-0.493-0.417l-0.362-2.16
			c-0.051-0.305,0.184-0.583,0.493-0.583h22.456c0.231,0,0.431,0.158,0.486,0.382l0.526,2.16
			C382.986,436.268,382.748,436.572,382.424,436.572z"/>
		<path style="fill:#2D2D2D;" d="M444.686,433.75l0.738,2.16c0.111,0.324-0.13,0.662-0.473,0.662h-58.408
			c-0.231,0-0.431-0.158-0.486-0.382l-0.526-2.16c-0.077-0.315,0.162-0.618,0.486-0.618h58.196
			C444.426,433.411,444.616,433.547,444.686,433.75z"/>
		<path style="fill:#2D2D2D;" d="M467.531,433.71l0.95,2.16c0.145,0.33-0.097,0.701-0.458,0.701h-18.845
			c-0.214,0-0.405-0.137-0.474-0.34l-0.731-2.16c-0.11-0.324,0.131-0.66,0.474-0.66h18.627
			C467.272,433.411,467.452,433.529,467.531,433.71z"/>
		<path style="fill:#2D2D2D;" d="M490.856,436.572h-18.46c-0.198,0-0.378-0.117-0.458-0.299l-0.95-2.16
			c-0.145-0.33,0.097-0.701,0.458-0.701h18.228c0.183,0,0.351,0.1,0.439,0.26l1.183,2.16
			C491.477,436.165,491.236,436.572,490.856,436.572z"/>
		<path style="fill:#2D2D2D;" d="M487.538,429.567l1.404,2.14c0.218,0.332-0.02,0.774-0.418,0.774h-17.927
			c-0.183,0-0.352-0.1-0.439-0.261l-1.165-2.14c-0.181-0.333,0.06-0.739,0.439-0.739h17.688
			C487.289,429.342,487.446,429.426,487.538,429.567z"/>
		<path style="fill:#2D2D2D;" d="M465.322,429.602l1.165,2.14c0.181,0.333-0.06,0.739-0.439,0.739h-18.766
			c-0.211,0-0.4-0.133-0.471-0.332l-0.763-2.14c-0.116-0.326,0.125-0.668,0.471-0.668h18.364
			C465.066,429.342,465.234,429.442,465.322,429.602z"/>
		<path style="fill:#2D2D2D;" d="M531.58,432.482h-15.839c-0.169,0-0.326-0.085-0.419-0.227l-1.397-2.14
			c-0.217-0.333,0.021-0.773,0.419-0.773h15.436c0.304,0,0.591,0.143,0.774,0.385l1.446,1.915
			C532.26,431.982,532.02,432.482,531.58,432.482z"/>
		<path style="fill:#2D2D2D;" d="M341.715,432.482H319.18c-0.276,0-0.5-0.224-0.5-0.5v-2.14c0-0.276,0.224-0.5,0.5-0.5h22.351
			c0.26,0,0.476,0.199,0.498,0.457l0.184,2.14C342.238,432.231,342.008,432.482,341.715,432.482z"/>
		<path style="fill:#2D2D2D;" d="M101.269,426.304l-0.959,1.477c-0.255,0.393-0.693,0.631-1.162,0.631H71.479
			c-0.587,0-0.925-0.666-0.579-1.14l1-1.37c0.17-0.233,0.44-0.37,0.728-0.37h28.221
			C101.246,425.532,101.485,425.971,101.269,426.304z"/>
		<path style="fill:#2D2D2D;" d="M127.428,426.288l-0.865,1.449c-0.25,0.419-0.702,0.675-1.189,0.675h-20.98
			c-0.397,0-0.636-0.441-0.419-0.773l0.965-1.479c0.256-0.392,0.692-0.628,1.16-0.628h20.899
			C127.387,425.532,127.627,425.955,127.428,426.288z"/>
		<path style="fill:#2D2D2D;" d="M153.517,426.248l-0.66,1.377c-0.23,0.481-0.716,0.786-1.249,0.786h-21.079
			c-0.388,0-0.628-0.422-0.43-0.755l0.859-1.447c0.25-0.42,0.702-0.678,1.191-0.678h20.918
			C153.434,425.532,153.676,425.916,153.517,426.248z"/>
		<path style="fill:#2D2D2D;" d="M91.384,422.386l-1.289,1.683c-0.262,0.342-0.669,0.543-1.1,0.543H74.25
			c-0.591,0-0.932-0.671-0.584-1.149l1.104-1.511c0.17-0.233,0.44-0.37,0.728-0.37h15.489
			C91.402,421.582,91.636,422.057,91.384,422.386z"/>
		<path style="fill:#2D2D2D;" d="M116.974,422.333l-0.923,1.59c-0.248,0.427-0.704,0.689-1.198,0.689h-20.39
			c-0.414,0-0.649-0.475-0.397-0.804l1.289-1.683c0.262-0.342,0.669-0.543,1.1-0.543h20.087
			C116.927,421.582,117.167,421.999,116.974,422.333z"/>
		<path style="fill:#2D2D2D;" d="M142.434,422.307l-0.78,1.544c-0.236,0.467-0.714,0.761-1.236,0.761h-20.429
			c-0.385,0-0.626-0.418-0.432-0.751l0.923-1.59c0.248-0.427,0.704-0.689,1.198-0.689h20.31
			C142.36,421.582,142.602,421.974,142.434,422.307z"/>
		<path style="fill:#2D2D2D;" d="M168.04,422.26l-0.777,2.03c-0.074,0.193-0.26,0.321-0.467,0.321h-21.353
			c-0.373,0-0.614-0.393-0.446-0.725l0.78-1.544c0.236-0.467,0.714-0.761,1.236-0.761h20.561
			C167.924,421.582,168.165,421.933,168.04,422.26z"/>
		<path style="fill:#2D2D2D;" d="M193.994,422.197l-0.482,2.03c-0.054,0.225-0.255,0.384-0.486,0.384h-21.938
			c-0.351,0-0.592-0.351-0.467-0.679l0.777-2.03c0.074-0.193,0.26-0.321,0.467-0.321h21.643
			C193.83,421.582,194.068,421.883,193.994,422.197z"/>
		<path style="fill:#2D2D2D;" d="M219.13,422.144l-0.255,2.03c-0.031,0.25-0.244,0.438-0.496,0.438h-21.246
			c-0.323,0-0.561-0.301-0.486-0.616l0.482-2.03c0.054-0.225,0.255-0.384,0.486-0.384h21.018
			C218.934,421.582,219.167,421.845,219.13,422.144z"/>
		<path style="fill:#2D2D2D;" d="M244.817,422.121l-0.161,2.03c-0.021,0.26-0.238,0.461-0.498,0.461h-21.741
			c-0.301,0-0.534-0.264-0.496-0.562l0.255-2.03c0.031-0.25,0.244-0.438,0.496-0.438h21.648
			C244.611,421.582,244.84,421.83,244.817,422.121z"/>
		<path style="fill:#2D2D2D;" d="M270.832,422.09l-0.034,2.03c-0.005,0.273-0.227,0.492-0.5,0.492h-22.127
			c-0.292,0-0.521-0.249-0.498-0.539l0.161-2.03c0.021-0.26,0.238-0.461,0.498-0.461h22
			C270.611,421.582,270.836,421.81,270.832,422.09z"/>
		<path style="fill:#2D2D2D;" d="M296.29,422.082v2.03c0,0.276-0.224,0.5-0.5,0.5h-21.492c-0.279,0-0.505-0.229-0.5-0.508
			l0.034-2.03c0.005-0.273,0.227-0.492,0.5-0.492h21.458C296.066,421.582,296.29,421.805,296.29,422.082z"/>
		<path style="fill:#2D2D2D;" d="M321.96,422.082v2.03c0,0.276-0.224,0.5-0.5,0.5h-21.67c-0.276,0-0.5-0.224-0.5-0.5v-2.03
			c0-0.276,0.224-0.5,0.5-0.5h21.67C321.736,421.582,321.96,421.805,321.96,422.082z"/>
		<path style="fill:#2D2D2D;" d="M440.007,424.612h-37.349c-0.224,0-0.42-0.148-0.481-0.363l-0.576-2.03
			c-0.091-0.319,0.149-0.637,0.481-0.637h36.376c0.528,0,1.01,0.3,1.243,0.774l0.755,1.536
			C440.619,424.223,440.377,424.612,440.007,424.612z"/>
		<path style="fill:#2D2D2D;" d="M363.197,420.732h-19.309c-0.494,0-0.903-0.383-0.935-0.876l-0.088-1.361
			c-0.019-0.288,0.21-0.532,0.499-0.532h19.324c0.444,0,0.817,0.337,0.861,0.779l0.146,1.441
			C363.724,420.476,363.493,420.732,363.197,420.732z"/>
		<path style="fill:#2D2D2D;" d="M147.083,433.411h22.069c0.356,0,0.598,0.362,0.462,0.691l-0.895,2.16
			c-0.077,0.187-0.26,0.309-0.462,0.309H146.03c-0.369,0-0.611-0.387-0.449-0.719l1.053-2.16
			C146.717,433.521,146.891,433.411,147.083,433.411z"/>
		<path style="fill:#2D2D2D;" d="M66.897,433.411h48.868c0.385,0,0.625,0.416,0.433,0.75l-1.244,2.16
			c-0.089,0.155-0.254,0.25-0.433,0.25H65.56c-0.591,0-0.932-0.67-0.584-1.148l1.194-1.642
			C66.339,433.549,66.609,433.411,66.897,433.411z"/>
		<path style="fill:#2D2D2D;" d="M120.389,433.411h22.249c0.37,0,0.612,0.388,0.449,0.72l-1.059,2.16
			c-0.084,0.171-0.258,0.28-0.449,0.28h-22.433c-0.385,0-0.625-0.416-0.433-0.75l1.244-2.16
			C120.045,433.507,120.21,433.411,120.389,433.411z"/>
		<path style="fill:#2D2D2D;" d="M173.484,433.411h22.577c0.34,0,0.581,0.332,0.475,0.655l-0.704,2.16
			c-0.067,0.206-0.259,0.345-0.475,0.345h-22.768c-0.356,0-0.598-0.362-0.462-0.691l0.895-2.16
			C173.1,433.533,173.282,433.411,173.484,433.411z"/>
		<path style="fill:#2D2D2D;" d="M200.263,433.411h22.116c0.319,0,0.557,0.295,0.488,0.607l-0.472,2.16
			c-0.05,0.23-0.253,0.393-0.488,0.393h-22.349c-0.34,0-0.581-0.332-0.475-0.655l0.704-2.16
			C199.855,433.551,200.046,433.411,200.263,433.411z"/>
		<path style="fill:#2D2D2D;" d="M534.69,436.572h-17.274c-0.183,0-0.351-0.1-0.439-0.26l-1.183-2.16
			c-0.182-0.333,0.059-0.74,0.439-0.74h16.636c0.303,0,0.588,0.141,0.772,0.382l1.468,1.928
			C535.37,436.072,535.12,436.572,534.69,436.572z"/>
		<path style="fill:#2D2D2D;" d="M512.856,436.572h-17.45c-0.183,0-0.351-0.1-0.439-0.26l-1.183-2.16
			c-0.182-0.333,0.059-0.74,0.439-0.74h17.45c0.183,0,0.351,0.1,0.439,0.26l1.183,2.16
			C513.477,436.165,513.236,436.572,512.856,436.572z"/>
		<path style="fill:#2D2D2D;" d="M105.442,430.116l-1.404,2.14c-0.092,0.141-0.25,0.226-0.418,0.226H68.519
			c-0.587,0-0.925-0.666-0.579-1.14l1.19-1.63c0.17-0.233,0.44-0.37,0.728-0.37h35.166
			C105.422,429.342,105.66,429.783,105.442,430.116z"/>
		<path style="fill:#2D2D2D;" d="M131.928,430.091l-1.234,2.14c-0.089,0.155-0.254,0.25-0.433,0.25h-21.858
			c-0.397,0-0.636-0.441-0.419-0.773l1.397-2.14c0.092-0.141,0.25-0.227,0.419-0.227h21.694
			C131.879,429.342,132.12,429.758,131.928,430.091z"/>
		<path style="fill:#2D2D2D;" d="M158.174,430.071l-1.104,2.14c-0.086,0.166-0.257,0.271-0.444,0.271h-21.75
			c-0.385,0-0.625-0.416-0.433-0.75l1.234-2.14c0.089-0.155,0.254-0.25,0.433-0.25h21.62
			C158.104,429.342,158.345,429.738,158.174,430.071z"/>
		<path style="fill:#2D2D2D;" d="M184.419,430.044l-0.947,2.14c-0.08,0.181-0.259,0.298-0.457,0.298h-21.884
			c-0.374,0-0.616-0.396-0.444-0.729l1.104-2.14c0.086-0.166,0.257-0.271,0.444-0.271h21.727
			C184.323,429.342,184.565,429.713,184.419,430.044z"/>
		<path style="fill:#2D2D2D;" d="M211.036,429.962l-0.532,2.14c-0.055,0.223-0.256,0.379-0.485,0.379h-22.631
			c-0.362,0-0.604-0.372-0.457-0.702l0.947-2.14c0.08-0.181,0.259-0.298,0.457-0.298h22.215
			C210.876,429.342,211.114,429.647,211.036,429.962z"/>
		<path style="fill:#2D2D2D;" d="M236.959,429.934l-0.402,2.14c-0.044,0.236-0.251,0.408-0.491,0.408h-21.926
			c-0.325,0-0.564-0.305-0.485-0.621l0.532-2.14c0.055-0.223,0.256-0.379,0.485-0.379h21.796
			C236.78,429.342,237.017,429.626,236.959,429.934z"/>
		<path style="fill:#2D2D2D;" d="M263.421,429.878l-0.157,2.14c-0.019,0.261-0.237,0.463-0.499,0.463h-22.633
			c-0.313,0-0.549-0.285-0.491-0.592l0.402-2.14c0.044-0.236,0.251-0.408,0.491-0.408h22.387
			C263.213,429.342,263.442,429.588,263.421,429.878z"/>
		<path style="fill:#2D2D2D;" d="M368.109,432.482H345.73c-0.26,0-0.477-0.199-0.498-0.459l-0.177-2.14
			c-0.024-0.291,0.206-0.541,0.498-0.541h22.269c0.251,0,0.462,0.185,0.496,0.434l0.286,2.14
			C368.644,432.215,368.411,432.482,368.109,432.482z"/>
		<path style="fill:#2D2D2D;" d="M394.579,432.482h-22.431c-0.251,0-0.462-0.185-0.496-0.434l-0.286-2.14
			c-0.04-0.3,0.193-0.566,0.496-0.566h22.111c0.224,0,0.42,0.148,0.481,0.364l0.607,2.14
			C395.15,432.164,394.91,432.482,394.579,432.482z"/>
		<path style="fill:#2D2D2D;" d="M443.041,432.482h-44.303c-0.224,0-0.42-0.148-0.481-0.364l-0.607-2.14
			c-0.09-0.319,0.149-0.636,0.481-0.636h44.146c0.211,0,0.4,0.133,0.471,0.332l0.763,2.14
			C443.628,432.139,443.386,432.482,443.041,432.482z"/>
		<path style="fill:#2D2D2D;" d="M179.599,426.216l-0.523,1.321c-0.209,0.528-0.72,0.875-1.288,0.875h-21.182
			c-0.369,0-0.611-0.385-0.45-0.717l0.666-1.38c0.231-0.479,0.716-0.783,1.247-0.783h21.065
			C179.487,425.532,179.729,425.887,179.599,426.216z"/>
		<path style="fill:#2D2D2D;" d="M205.181,426.19l-0.425,1.275c-0.189,0.566-0.718,0.947-1.314,0.947h-20.739
			c-0.352,0-0.594-0.355-0.465-0.683l0.517-1.318c0.208-0.53,0.72-0.879,1.289-0.879h20.662
			C205.048,425.532,205.289,425.866,205.181,426.19z"/>
		<path style="fill:#2D2D2D;" d="M231.322,426.129l-0.231,1.167c-0.128,0.649-0.697,1.116-1.359,1.116h-21.429
			c-0.341,0-0.582-0.334-0.474-0.658l0.425-1.275c0.189-0.566,0.718-0.947,1.314-0.947h21.263
			C231.146,425.532,231.383,425.82,231.322,426.129z"/>
		<path style="fill:#2D2D2D;" d="M257.164,426.09l-0.222,1.88c-0.03,0.252-0.243,0.441-0.497,0.441h-21.897
			c-0.315,0-0.552-0.288-0.49-0.597l0.231-1.167c0.128-0.649,0.697-1.116,1.359-1.116h21.02
			C256.967,425.532,257.199,425.793,257.164,426.09z"/>
		<path style="fill:#2D2D2D;" d="M283.169,426.042l-0.039,1.88c-0.006,0.272-0.228,0.49-0.5,0.49h-22.158
			c-0.299,0-0.532-0.261-0.497-0.559l0.222-1.88c0.03-0.252,0.243-0.441,0.497-0.441h21.975
			C282.95,425.532,283.175,425.762,283.169,426.042z"/>
		<path style="fill:#2D2D2D;" d="M309.12,426.032v1.88c0,0.276-0.224,0.5-0.5,0.5h-21.989c-0.28,0-0.506-0.23-0.5-0.51l0.039-1.88
			c0.006-0.272,0.228-0.49,0.5-0.49h21.95C308.896,425.532,309.12,425.755,309.12,426.032z"/>
		<path style="fill:#2D2D2D;" d="M334.602,428.411H312.62c-0.276,0-0.5-0.224-0.5-0.5v-1.88c0-0.276,0.224-0.5,0.5-0.5h21.917
			c0.269,0,0.49,0.213,0.5,0.483l0.065,1.88C335.112,428.177,334.885,428.411,334.602,428.411z"/>
		<path style="fill:#2D2D2D;" d="M360.785,428.411h-22.182c-0.269,0-0.49-0.213-0.5-0.483l-0.065-1.88
			c-0.01-0.283,0.217-0.517,0.5-0.517h22.052c0.256,0,0.471,0.193,0.497,0.448l0.196,1.88
			C361.313,428.155,361.082,428.411,360.785,428.411z"/>
		<path style="fill:#2D2D2D;" d="M386.705,428.411h-21.905c-0.256,0-0.471-0.193-0.497-0.448l-0.196-1.88
			c-0.031-0.295,0.201-0.552,0.497-0.552h20.931c0.632,0,1.184,0.428,1.341,1.04l0.312,1.215
			C387.271,428.103,387.032,428.411,386.705,428.411z"/>
		<path style="fill:#2D2D2D;" d="M412.84,428.411h-21.306c-0.632,0-1.184-0.428-1.341-1.04l-0.312-1.215
			c-0.081-0.316,0.158-0.624,0.484-0.624h21.18c0.585,0,1.107,0.368,1.304,0.919l0.462,1.293
			C413.427,428.069,413.186,428.411,412.84,428.411z"/>
		<path style="fill:#2D2D2D;" d="M441.532,428.411h-23.817c-0.585,0-1.107-0.368-1.304-0.919l-0.462-1.293
			c-0.116-0.326,0.125-0.668,0.471-0.668h23.744c0.561,0,1.066,0.338,1.28,0.856l0.551,1.333
			C442.131,428.05,441.889,428.411,441.532,428.411z"/>
		<path style="fill:#2D2D2D;" d="M463.891,428.411h-17.434c-0.561,0-1.066-0.338-1.28-0.856l-0.551-1.333
			c-0.136-0.329,0.106-0.691,0.462-0.691h17.277c0.514,0,0.985,0.284,1.225,0.739l0.743,1.408
			C464.509,428.011,464.267,428.411,463.891,428.411z"/>
		<path style="fill:#2D2D2D;" d="M486.206,428.411h-17.241c-0.514,0-0.985-0.284-1.225-0.738l-0.743-1.408
			c-0.176-0.333,0.066-0.733,0.442-0.733h17.116c0.481,0,0.928,0.25,1.18,0.66l0.896,1.458
			C486.837,427.983,486.597,428.411,486.206,428.411z"/>
		<path style="fill:#2D2D2D;" d="M528.49,428.411h-15.274c-0.449,0-0.87-0.218-1.13-0.584l-1.067-1.507
			c-0.235-0.331,0.002-0.789,0.408-0.789h15.453c0.302,0,0.588,0.141,0.771,0.381l1.259,1.649
			C529.17,427.911,528.92,428.411,528.49,428.411z"/>
		<path style="fill:#2D2D2D;" d="M86.915,438.246l-1.659,2.81c-0.09,0.152-0.254,0.246-0.431,0.246H62.181
			c-0.618,0-0.974-0.701-0.611-1.2l1.628-2.237c0.17-0.234,0.442-0.373,0.732-0.373h22.554
			C86.871,437.492,87.111,437.912,86.915,438.246z"/>
		<path style="fill:#2D2D2D;" d="M113.717,438.245l-1.652,2.81c-0.09,0.153-0.254,0.247-0.431,0.247H89.456
			c-0.387,0-0.627-0.421-0.431-0.754l1.659-2.81c0.09-0.152,0.254-0.246,0.431-0.246h22.171
			C113.673,437.492,113.913,437.912,113.717,438.245z"/>
		<path style="fill:#2D2D2D;" d="M141.132,438.201l-1.298,2.81c-0.082,0.177-0.259,0.29-0.454,0.29h-23.114
			c-0.387,0-0.627-0.421-0.431-0.754l1.659-2.81c0.09-0.152,0.254-0.246,0.431-0.246h22.753
			C141.043,437.492,141.285,437.87,141.132,438.201z"/>
		<path style="fill:#2D2D2D;" d="M303.02,437.992v2.8c0,0.276-0.224,0.5-0.5,0.5l-131.779,0.01c-0.352,0-0.593-0.353-0.466-0.681
			l1.092-2.81c0.075-0.192,0.26-0.319,0.466-0.319H302.52C302.796,437.492,303.02,437.715,303.02,437.992z"/>
		<path style="fill:#2D2D2D;" d="M329.145,441.292H306.52c-0.276,0-0.5-0.224-0.5-0.5v-2.8c0-0.276,0.224-0.5,0.5-0.5h22.544
			c0.271,0,0.492,0.215,0.5,0.486l0.081,2.8C329.653,441.059,329.427,441.292,329.145,441.292z"/>
		<path style="fill:#2D2D2D;" d="M356.611,441.292h-23.466c-0.271,0-0.492-0.215-0.5-0.486l-0.081-2.8
			c-0.008-0.282,0.218-0.514,0.5-0.514h23.186c0.251,0,0.464,0.187,0.496,0.436l0.361,2.8
			C357.146,441.027,356.913,441.292,356.611,441.292z"/>
		<path style="fill:#2D2D2D;" d="M383.597,441.292H360.65c-0.251,0-0.464-0.187-0.496-0.436l-0.361-2.8
			c-0.039-0.299,0.194-0.564,0.496-0.564h22.69c0.235,0,0.438,0.163,0.488,0.392l0.619,2.8
			C384.155,440.996,383.917,441.292,383.597,441.292z"/>
		<path style="fill:#2D2D2D;" d="M445.19,441.282h-23.344c-0.213,0-0.403-0.135-0.473-0.337l-0.964-2.79
			c-0.112-0.325,0.129-0.663,0.473-0.663h23.351c0.214,0,0.404,0.136,0.473,0.338l0.957,2.79
			C445.774,440.944,445.533,441.282,445.19,441.282z"/>
		<path style="fill:#2D2D2D;" d="M493.271,441.282h-43.845c-0.213,0-0.403-0.135-0.473-0.337l-0.964-2.79
			c-0.112-0.325,0.129-0.663,0.473-0.663h43.09c0.174,0,0.335,0.09,0.426,0.238l1.719,2.79
			C493.902,440.852,493.663,441.282,493.271,441.282z"/>
		<path style="fill:#2D2D2D;" d="M537.82,441.282h-17.548c-0.158,0-0.307-0.075-0.402-0.202l-2.069-2.79
			c-0.245-0.33-0.009-0.798,0.402-0.798h17.767c0.303,0,0.589,0.142,0.772,0.383l1.675,2.203
			C538.792,440.572,538.44,441.282,537.82,441.282z"/>
		<path style="fill:#2D2D2D;" d="M507.863,428.411h-16.469c-0.481,0-0.928-0.25-1.18-0.66l-0.896-1.458
			c-0.205-0.333,0.035-0.762,0.426-0.762h16.33c0.449,0,0.871,0.218,1.13,0.584l1.067,1.507
			C508.506,427.954,508.269,428.411,507.863,428.411z"/>
		<path style="fill:#2D2D2D;" d="M510.956,432.482H493.31c-0.168,0-0.326-0.085-0.418-0.226l-1.404-2.14
			c-0.218-0.333,0.02-0.774,0.418-0.774h17.653c0.169,0,0.326,0.085,0.419,0.227l1.397,2.14
			C511.592,432.041,511.354,432.482,510.956,432.482z"/>
		<path style="fill:#2D2D2D;" d="M515.291,441.282h-17.555c-0.174,0-0.335-0.09-0.426-0.238l-1.719-2.79
			c-0.205-0.333,0.034-0.762,0.426-0.762h17.22c0.159,0,0.308,0.076,0.403,0.204l2.054,2.79
			C515.937,440.815,515.701,441.282,515.291,441.282z"/>
		<path style="fill:#2D2D2D;" d="M504.894,424.612H489.08c-0.446,0-0.864-0.214-1.124-0.576l-1.196-1.662
			c-0.238-0.331-0.002-0.792,0.406-0.792h15.815c0.446,0,0.864,0.214,1.124,0.576l1.196,1.662
			C505.538,424.15,505.302,424.612,504.894,424.612z"/>
		<path style="fill:#2D2D2D;" d="M346.924,424.612H325.46c-0.276,0-0.5-0.224-0.5-0.5v-2.03c0-0.276,0.224-0.5,0.5-0.5h21.25
			c0.256,0,0.47,0.193,0.497,0.447l0.214,2.03C347.453,424.354,347.221,424.612,346.924,424.612z"/>
		<path style="fill:#2D2D2D;" d="M372.719,424.612H350.96c-0.256,0-0.47-0.193-0.497-0.447l-0.214-2.03
			c-0.031-0.295,0.2-0.553,0.497-0.553h21.632c0.244,0,0.453,0.176,0.493,0.417l0.342,2.03
			C373.263,424.334,373.028,424.612,372.719,424.612z"/>
		<path style="fill:#2D2D2D;" d="M398.498,424.612h-21.725c-0.244,0-0.453-0.176-0.493-0.417l-0.342-2.03
			c-0.051-0.305,0.184-0.583,0.493-0.583h21.491c0.224,0,0.42,0.148,0.481,0.363l0.576,2.03
			C399.07,424.294,398.83,424.612,398.498,424.612z"/>
		<path style="fill:#2D2D2D;" d="M483.694,424.612h-16.823c-0.501,0-0.963-0.27-1.208-0.707l-0.885-1.578
			c-0.187-0.333,0.054-0.745,0.436-0.745h16.566c0.446,0,0.864,0.214,1.124,0.576l1.196,1.662
			C484.338,424.15,484.102,424.612,483.694,424.612z"/>
		<path style="fill:#2D2D2D;" d="M461.843,424.612h-16.825c-0.541,0-1.033-0.315-1.259-0.807l-0.695-1.514
			c-0.152-0.331,0.09-0.709,0.454-0.709h16.578c0.48,0,0.926,0.249,1.178,0.657l0.994,1.61
			C462.475,424.182,462.235,424.612,461.843,424.612z"/>
		<path style="fill:#2D2D2D;" d="M525.6,424.612h-15.32c-0.446,0-0.864-0.214-1.124-0.576l-1.196-1.662
			c-0.238-0.331-0.002-0.792,0.406-0.792h15.514c0.303,0,0.589,0.142,0.772,0.383l1.368,1.797
			C526.28,424.112,526.03,424.612,525.6,424.612z"/>
		<path style="fill:#2D2D2D;" d="M522.66,420.732h-33.448c-0.43,0-0.836-0.2-1.098-0.541l-1.095-1.424
			c-0.253-0.329-0.018-0.805,0.396-0.805h33.724c0.294,0,0.571,0.137,0.751,0.37l1.19,1.55
			C523.34,420.232,523.09,420.732,522.66,420.732z"/>
		<path style="fill:#2D2D2D;" d="M483.728,420.732H464.78c-0.489,0-0.942-0.258-1.192-0.679l-0.791-1.336
			c-0.197-0.333,0.043-0.755,0.43-0.755h18.709c0.431,0,0.838,0.201,1.1,0.543l1.089,1.423
			C484.377,420.257,484.142,420.732,483.728,420.732z"/>
		<path style="fill:#2D2D2D;" d="M459.623,420.732h-19.041c-0.554,0-1.054-0.33-1.273-0.838l-0.53-1.234
			c-0.142-0.33,0.1-0.697,0.459-0.697h18.831c0.489,0,0.942,0.258,1.192,0.679l0.791,1.336
			C460.25,420.31,460.01,420.732,459.623,420.732z"/>
		<path style="fill:#2D2D2D;" d="M435.641,420.732h-19.226c-0.632,0-1.185-0.428-1.342-1.041l-0.283-1.105
			c-0.081-0.316,0.158-0.624,0.484-0.624h19.023c0.554,0,1.054,0.33,1.273,0.838l0.53,1.234
			C436.242,420.364,436,420.732,435.641,420.732z"/>
		<path style="fill:#2D2D2D;" d="M411.606,420.732h-19.237c-0.657,0-1.224-0.462-1.357-1.106l-0.219-1.063
			c-0.064-0.31,0.173-0.601,0.49-0.601h19.182c0.632,0,1.185,0.428,1.342,1.041l0.283,1.105
			C412.171,420.424,411.932,420.732,411.606,420.732z"/>
		<path style="fill:#2D2D2D;" d="M387.569,420.732h-20.322c-0.271,0-0.498-0.205-0.525-0.475l-0.176-1.745
			c-0.03-0.295,0.201-0.55,0.497-0.55h20.145c0.251,0,0.467,0.177,0.517,0.423l0.353,1.748
			C388.121,420.442,387.885,420.732,387.569,420.732z"/>
		<path style="fill:#2D2D2D;" d="M319.534,417.962h19.642c0.362,0,0.663,0.281,0.686,0.643l0.104,1.594
			c0.019,0.288-0.21,0.532-0.499,0.532h-19.932c-0.472,0-0.854-0.382-0.854-0.854v-1.062
			C318.68,418.344,319.062,417.962,319.534,417.962z"/>
		<path style="fill:#2D2D2D;" d="M235.771,420.732h19.309c0.494,0,0.903-0.383,0.935-0.876l0.088-1.361
			c0.019-0.288-0.21-0.532-0.499-0.532h-19.324c-0.444,0-0.817,0.337-0.861,0.779l-0.146,1.441
			C235.244,420.476,235.475,420.732,235.771,420.732z"/>
		<path style="fill:#2D2D2D;" d="M76.308,420.732h33.448c0.43,0,0.836-0.2,1.098-0.541l1.095-1.424
			c0.253-0.329,0.018-0.805-0.396-0.805H77.828c-0.294,0-0.571,0.137-0.751,0.37l-1.19,1.55
			C75.628,420.232,75.878,420.732,76.308,420.732z"/>
		<path style="fill:#2D2D2D;" d="M115.24,420.732h18.948c0.489,0,0.942-0.258,1.192-0.679l0.791-1.336
			c0.197-0.333-0.043-0.755-0.43-0.755h-18.709c-0.431,0-0.838,0.201-1.1,0.543l-1.089,1.423
			C114.591,420.257,114.826,420.732,115.24,420.732z"/>
		<path style="fill:#2D2D2D;" d="M139.345,420.732h19.041c0.554,0,1.054-0.33,1.273-0.838l0.53-1.234
			c0.142-0.33-0.1-0.697-0.459-0.697h-18.831c-0.489,0-0.942,0.258-1.192,0.679l-0.791,1.336
			C138.717,420.31,138.958,420.732,139.345,420.732z"/>
		<path style="fill:#2D2D2D;" d="M163.327,420.732h19.226c0.632,0,1.185-0.428,1.342-1.041l0.283-1.105
			c0.081-0.316-0.158-0.624-0.484-0.624H164.67c-0.554,0-1.054,0.33-1.273,0.838l-0.53,1.234
			C162.726,420.364,162.968,420.732,163.327,420.732z"/>
		<path style="fill:#2D2D2D;" d="M187.362,420.732h19.237c0.657,0,1.224-0.462,1.357-1.106l0.219-1.063
			c0.064-0.31-0.173-0.601-0.49-0.601h-19.182c-0.632,0-1.185,0.428-1.342,1.041l-0.283,1.105
			C186.797,420.424,187.036,420.732,187.362,420.732z"/>
		<path style="fill:#2D2D2D;" d="M211.399,420.732h20.322c0.271,0,0.498-0.205,0.525-0.475l0.176-1.745
			c0.03-0.295-0.201-0.55-0.497-0.55H211.78c-0.251,0-0.467,0.177-0.517,0.423l-0.353,1.748
			C210.846,420.442,211.083,420.732,211.399,420.732z"/>
		<path style="fill:#2D2D2D;" d="M279.434,417.962h-19.642c-0.362,0-0.663,0.281-0.686,0.643l-0.104,1.594
			c-0.019,0.288,0.21,0.532,0.499,0.532h19.932c0.472,0,0.854-0.382,0.854-0.854v-1.062
			C280.288,418.344,279.906,417.962,279.434,417.962z"/>
		<path style="fill:#2D2D2D;" d="M314.826,417.962h-31.157c-0.362,0-0.663,0.281-0.686,0.643l-0.104,1.594
			c-0.019,0.288,0.21,0.532,0.499,0.532h31.746c0.472,0,0.556-0.382,0.556-0.854v-1.062
			C315.68,418.344,315.298,417.962,314.826,417.962z"/>
		<path style="fill:#2D2D2D;" d="M289.65,429.842v2.14c0,0.276-0.224,0.5-0.5,0.5h-22.382c-0.291,0-0.52-0.247-0.499-0.537
			l0.157-2.14c0.019-0.261,0.237-0.463,0.499-0.463h22.225C289.426,429.342,289.65,429.565,289.65,429.842z"/>
		<path style="fill:#2D2D2D;" d="M315.68,429.842v2.14c0,0.276-0.224,0.5-0.5,0.5h-22.03c-0.276,0-0.5-0.224-0.5-0.5v-2.14
			c0-0.276,0.224-0.5,0.5-0.5h22.03C315.456,429.342,315.68,429.565,315.68,429.842z"/>
		<polygon style="fill:#7DE7FF;" points="81,311 130,311 81,360 		"/>
		<polygon style="fill:#7DE7FF;" points="304,137 152,289 81,289 81,137 		"/>
	</g>
</g>
</svg>
