<svg width="41" height="45" viewBox="0 0 41 45" fill="none" xmlns="http://www.w3.org/2000/svg">
<g filter="url(#filter0_d_0_55)">
<path d="M36.9814 11.3025C36.9936 11.3514 36.9999 11.4019 37 11.4526V19.3301C37 19.4312 36.9753 19.5305 36.9284 19.618C36.8815 19.7055 36.814 19.7781 36.7328 19.8284L30.6125 23.6351V31.1802C30.6125 31.3855 30.5115 31.5751 30.3467 31.6785L17.5711 39.6235C17.5419 39.6415 17.51 39.6529 17.4781 39.6651C17.4661 39.6695 17.4548 39.6774 17.4422 39.6809C17.3529 39.7063 17.259 39.7063 17.1697 39.6809C17.1551 39.6766 17.1418 39.668 17.1278 39.6623C17.0986 39.6508 17.068 39.6407 17.0401 39.6235L4.26717 31.6785C4.18603 31.6281 4.1186 31.5555 4.0717 31.4681C4.0248 31.3806 4.00006 31.2813 4 31.1802V7.54752C4 7.49583 4.00665 7.44557 4.01861 7.39675C4.0226 7.38024 4.0319 7.36516 4.03722 7.34865C4.04719 7.31849 4.05649 7.28762 4.07111 7.25962C4.08108 7.24095 4.0957 7.22587 4.10767 7.20864C4.12295 7.18567 4.13691 7.16197 4.15485 7.14187C4.17014 7.12536 4.19008 7.11315 4.20735 7.09879C4.22663 7.08156 4.24391 7.06289 4.26584 7.04925L10.6533 3.07673C10.7342 3.02646 10.8258 3 10.9191 3C11.0124 3 11.1041 3.02646 11.185 3.07673L17.5718 7.04925H17.5731C17.5944 7.06361 17.6123 7.08156 17.6316 7.09807C17.6489 7.11243 17.6681 7.12536 17.6834 7.14115C17.702 7.16197 17.7153 7.18567 17.7313 7.20864C17.7426 7.22587 17.7579 7.24095 17.7672 7.25962C17.7825 7.28834 17.7911 7.31849 17.8017 7.34865C17.807 7.36516 17.8163 7.38024 17.8203 7.39747C17.8326 7.44639 17.8388 7.49684 17.8389 7.54752V22.3082L23.1611 18.9977V11.4518C23.1611 11.4016 23.1677 11.3506 23.1797 11.3025C23.1843 11.2853 23.193 11.2702 23.1983 11.2537C23.2089 11.2235 23.2182 11.1927 23.2328 11.1647C23.2428 11.146 23.2574 11.1309 23.2687 11.1137C23.2847 11.0907 23.298 11.067 23.3166 11.0469C23.3319 11.0304 23.3511 11.0182 23.3684 11.0038C23.3883 10.9866 23.4056 10.9679 23.4269 10.9543L29.815 6.98176C29.8959 6.93142 29.9875 6.90492 30.0809 6.90492C30.1742 6.90492 30.2659 6.93142 30.3467 6.98176L36.7335 10.9543C36.7561 10.9686 36.7734 10.9866 36.7933 11.0031C36.8099 11.0175 36.8292 11.0304 36.8445 11.0462C36.8631 11.067 36.8764 11.0907 36.8923 11.1137C36.9043 11.1309 36.9189 11.146 36.9282 11.1647C36.9435 11.1927 36.9522 11.2235 36.9628 11.2537C36.9688 11.2702 36.9774 11.2853 36.9814 11.3025ZM35.9353 18.9977V12.4469L33.7003 13.8369L30.6125 15.7575V22.3082L35.936 18.9977H35.9353ZM29.5485 30.8478V24.2927L26.5113 26.1666L17.8383 31.514V38.1308L29.5485 30.8478ZM5.06469 8.54191V30.8478L16.7736 38.1301V31.5148L10.6566 27.7749L10.6546 27.7734L10.652 27.772C10.6314 27.7591 10.6141 27.7404 10.5948 27.7246C10.5782 27.7102 10.5589 27.6988 10.5443 27.683L10.543 27.6808C10.5257 27.6629 10.5137 27.6406 10.4991 27.6205C10.4858 27.6011 10.4699 27.5846 10.4592 27.5645L10.4586 27.5623C10.4466 27.5408 10.4393 27.515 10.4307 27.4905C10.422 27.469 10.4107 27.4489 10.4054 27.4259C10.3988 27.3986 10.3974 27.3692 10.3948 27.3412C10.3921 27.3197 10.3868 27.2981 10.3868 27.2766V11.8525L7.29973 9.93118L5.06469 8.54191ZM10.9198 4.2384L5.59836 7.54752L10.9185 10.8566L16.2393 7.54681L10.9185 4.2384H10.9198ZM13.6872 24.8901L16.7743 22.9702V8.54191L14.5392 9.9319L11.4515 11.8525V26.2808L13.6872 24.8901ZM30.0809 8.14344L24.7601 11.4526L30.0809 14.7617L35.401 11.4518L30.0809 8.14344ZM29.5485 15.7575L26.4608 13.8369L24.2257 12.4469V18.9977L27.3128 20.9175L29.5485 22.3082V15.7575ZM17.3053 30.5197L25.1097 25.7064L29.0109 23.3012L23.6941 19.9942L17.5724 23.8016L11.9931 27.2716L17.3053 30.5197Z" fill="url(#paint0_linear_0_55)"/>
</g>
<defs>
<filter id="filter0_d_0_55" x="0" y="0" width="41" height="44.7" filterUnits="userSpaceOnUse" color-interpolation-filters="sRGB">
<feFlood flood-opacity="0" result="BackgroundImageFix"/>
<feColorMatrix in="SourceAlpha" type="matrix" values="0 0 0 0 0 0 0 0 0 0 0 0 0 0 0 0 0 0 127 0" result="hardAlpha"/>
<feOffset dy="1"/>
<feGaussianBlur stdDeviation="2"/>
<feComposite in2="hardAlpha" operator="out"/>
<feColorMatrix type="matrix" values="0 0 0 0 0 0 0 0 0 0 0 0 0 0 0 0 0 0 0.1 0"/>
<feBlend mode="normal" in2="BackgroundImageFix" result="effect1_dropShadow_0_55"/>
<feBlend mode="normal" in="SourceGraphic" in2="effect1_dropShadow_0_55" result="shape"/>
</filter>
<linearGradient id="paint0_linear_0_55" x1="20.5" y1="3" x2="20.5" y2="39.7" gradientUnits="userSpaceOnUse">
<stop stop-color="#DF3B31"/>
<stop offset="1" stop-color="#B70B00"/>
</linearGradient>
</defs>
</svg>
