<svg width="66" height="66" viewBox="0 0 66 66" fill="none" xmlns="http://www.w3.org/2000/svg">
<path d="M60.1067 0.00585977H5.59417C4.89155 -0.0270519 4.1893 0.0789116 3.52767 0.317746C2.86605 0.55658 2.25804 0.923548 1.7384 1.39762C1.21879 1.87174 0.797761 2.44369 0.499474 3.08069C0.201187 3.71773 0.0314417 4.40733 0 5.11003V59.7451C0.04116 61.2156 0.643777 62.6149 1.68409 63.6549C2.7244 64.6954 4.12351 65.2981 5.59417 65.3393H60.1067C61.5362 65.2756 62.8841 64.6541 63.8613 63.6084C64.8384 62.5626 65.3668 61.1759 65.3333 59.7451V5.11003C65.3452 4.42607 65.217 3.74697 64.9568 3.1143C64.6967 2.48167 64.31 1.90882 63.8204 1.43086C63.3313 0.952948 62.7494 0.580059 62.1108 0.335018C61.4721 0.0899775 60.7902 -0.0220294 60.1067 0.00585977ZM20.4167 54.4776H10.9025V25.3635H20.4167V54.4776ZM15.8842 20.9534C15.2203 20.9765 14.5587 20.8621 13.9412 20.6173C13.3235 20.3726 12.7632 20.0028 12.2954 19.5311C11.8276 19.0594 11.4624 18.4961 11.2227 17.8766C10.9829 17.257 10.874 16.5946 10.9025 15.9309C10.8731 15.26 10.9843 14.5904 11.229 13.965C11.4736 13.3396 11.8462 12.7723 12.323 12.2994C12.7997 11.8265 13.3701 11.4584 13.9974 11.2189C14.6247 10.9793 15.2952 10.8736 15.9658 10.9084C16.6297 10.8852 17.2913 10.9996 17.9088 11.2444C18.5265 11.4891 19.0868 11.859 19.5546 12.3306C20.0224 12.8023 20.3876 13.3656 20.6273 13.9852C20.8671 14.6047 20.976 15.2672 20.9475 15.9309C20.9769 16.6018 20.8657 17.2713 20.621 17.8967C20.3764 18.5221 20.0038 19.0894 19.527 19.5623C19.0503 20.0353 18.4799 20.4033 17.8526 20.6428C17.2253 20.8824 16.5548 20.9881 15.8842 20.9534ZM54.4717 54.4776H44.9167V38.5526C44.9167 34.7551 43.5692 32.1418 40.18 32.1418C39.1273 32.1508 38.1028 32.4852 37.2478 33.0994C36.3923 33.7135 35.7479 34.5771 35.4025 35.5718C35.1371 36.3174 35.026 37.1092 35.0758 37.8993V54.4776H25.6842V25.3635H35.0758V29.4468C35.9109 27.9127 37.1534 26.6395 38.6667 25.7673C40.18 24.8955 41.9048 24.4589 43.6508 24.5059C49.8167 24.5059 54.4717 28.5893 54.4717 37.2868V54.4776Z" fill="url(#paint0_linear_0_20)"/>
<defs>
<linearGradient id="paint0_linear_0_20" x1="32.6674" y1="0" x2="32.6674" y2="65.3393" gradientUnits="userSpaceOnUse">
<stop stop-color="#79DDF3"/>
<stop offset="1" stop-color="#58C4DC"/>
</linearGradient>
</defs>
</svg>
