<svg width="41" height="44" viewBox="0 0 41 44" fill="none" xmlns="http://www.w3.org/2000/svg">
<g filter="url(#filter0_d_0_64)">
<path d="M29.8675 16.7144C30.1073 17.2655 30.1642 18.2118 30.0388 19.5523C29.9078 20.9484 29.6555 21.9444 29.2817 22.5415C28.9076 23.1385 28.3388 23.437 27.5748 23.437H26.4221L27.1297 15.8877H28.4279C29.148 15.8877 29.6276 16.1634 29.8675 16.7144ZM13.6387 15.8877H12.3405L11.6328 23.437H12.7854C13.5492 23.437 14.1183 23.1385 14.4924 22.5415C14.8662 21.9444 15.1184 20.9483 15.2494 19.5523C15.3749 18.2117 15.3179 17.2655 15.0781 16.7144C14.8383 16.1634 14.3587 15.8877 13.6387 15.8877ZM37 21C37 30.9412 29.6126 39 20.5 39C11.3874 39 4 30.9412 4 21C4 11.059 11.3874 3 20.5 3C29.6126 3 37 11.059 37 21ZM16.7894 22.2436C16.9857 21.514 17.1254 20.7087 17.2081 19.828C17.4084 17.6896 17.2572 16.0241 16.7545 14.8309C16.252 13.6376 15.4522 13.0412 14.3563 13.0412H10.7125L9.02201 31.0794H10.9169L11.3662 26.2842H12.9894C13.7054 26.2842 14.2945 26.1283 14.757 25.8158C15.2195 25.5039 15.6398 24.9811 16.0181 24.2464C16.3355 23.641 16.5925 22.9738 16.7894 22.2436ZM23.4586 26.2842L24.2453 17.8894C24.4054 16.1823 24.2852 14.947 23.8854 14.1845C23.4853 13.4228 22.7586 13.0412 21.7047 13.0412H20.03L20.4795 8.24533H18.5996L16.9088 26.284H18.7887L19.7571 15.9497H21.2597C21.7407 15.9497 22.0551 16.1147 22.2028 16.4449C22.3505 16.7753 22.3819 17.3946 22.2968 18.3023L21.5489 26.284H23.4586V26.2842ZM31.5438 14.831C31.0413 13.6377 30.2416 13.0413 29.1456 13.0413H25.5018L23.8112 31.0795H25.7062L26.1555 26.2843H27.7787C28.4946 26.2843 29.0838 26.1284 29.5463 25.816C30.0087 25.504 30.429 24.9812 30.8074 24.2465C31.1251 23.641 31.3819 22.9739 31.5786 22.2438C31.7752 21.5141 31.9146 20.7088 31.9973 19.8281C32.1977 17.6896 32.0465 16.0241 31.5438 14.831Z" fill="url(#paint0_linear_0_64)"/>
</g>
<defs>
<filter id="filter0_d_0_64" x="0" y="0" width="41" height="44" filterUnits="userSpaceOnUse" color-interpolation-filters="sRGB">
<feFlood flood-opacity="0" result="BackgroundImageFix"/>
<feColorMatrix in="SourceAlpha" type="matrix" values="0 0 0 0 0 0 0 0 0 0 0 0 0 0 0 0 0 0 127 0" result="hardAlpha"/>
<feOffset dy="1"/>
<feGaussianBlur stdDeviation="2"/>
<feComposite in2="hardAlpha" operator="out"/>
<feColorMatrix type="matrix" values="0 0 0 0 0 0 0 0 0 0 0 0 0 0 0 0 0 0 0.1 0"/>
<feBlend mode="normal" in2="BackgroundImageFix" result="effect1_dropShadow_0_64"/>
<feBlend mode="normal" in="SourceGraphic" in2="effect1_dropShadow_0_64" result="shape"/>
</filter>
<linearGradient id="paint0_linear_0_64" x1="20.5" y1="3" x2="20.5" y2="39" gradientUnits="userSpaceOnUse">
<stop stop-color="#7042D3"/>
<stop offset="0.0001" stop-color="#5564E9"/>
<stop offset="1" stop-color="#1F2EB7"/>
</linearGradient>
</defs>
</svg>
